<svg xmlns="http://www.w3.org/2000/svg" viewBox="0 0 400 400">
  <defs>
    <linearGradient id="bg" x1="0" y1="0" x2="0" y2="1">
      <stop offset="0%" stop-color="#190d1f"/>
      <stop offset="100%" stop-color="#320f1d"/>
    </linearGradient>
    <radialGradient id="ruby" cx="0.5" cy="0.45" r="0.35">
      <stop offset="0%" stop-color="#ff6a7a55"/>
      <stop offset="100%" stop-color="#ff6a7a00"/>
    </radialGradient>
  </defs>
  <rect width="400" height="400" fill="url(#bg)"/>
  <circle cx="200" cy="175" r="120" fill="url(#ruby)"/>
  <rect x="92" y="110" width="216" height="240" rx="18" fill="#3d1f28"/>
  <rect x="110" y="128" width="180" height="204" rx="54" fill="#5e1f31"/>
  <rect x="126" y="144" width="148" height="188" rx="44" fill="#7b2239"/>
  <polygon points="200,176 170,206 200,236 230,206" fill="#e24b63"/>
  <circle cx="200" cy="238" r="8" fill="#f6c0b0"/>
  <path d="M72 156 C96 130 108 122 124 112" stroke="#2f6f45" stroke-width="7" fill="none"/>
  <path d="M328 156 C304 130 292 122 276 112" stroke="#2f6f45" stroke-width="7" fill="none"/>
  <circle cx="104" cy="126" r="8" fill="#4f9a63"/>
  <circle cx="296" cy="126" r="8" fill="#4f9a63"/>
  <ellipse cx="200" cy="374" rx="86" ry="12" fill="#251521"/>
</svg>
