<svg xmlns="http://www.w3.org/2000/svg" viewBox="0 0 400 400">
  <defs>
    <linearGradient id="bg" x1="0" y1="0" x2="0" y2="1">
      <stop offset="0%" stop-color="#07152e"/>
      <stop offset="100%" stop-color="#130b23"/>
    </linearGradient>
    <linearGradient id="spire" x1="0" y1="0" x2="1" y2="1">
      <stop offset="0%" stop-color="#d6eeff"/>
      <stop offset="100%" stop-color="#6bb3ff"/>
    </linearGradient>
  </defs>
  <rect width="400" height="400" fill="url(#bg)"/>
  <polygon points="200,42 150,330 250,330" fill="url(#spire)" opacity="0.9"/>
  <polygon points="200,78 172,300 228,300" fill="#eef8ff" opacity="0.8"/>
  <polygon points="200,42 186,96 214,96" fill="#fff7c0"/>
  <path d="M150 330 H250" stroke="#4f5b7b" stroke-width="16" stroke-linecap="round"/>
  <path d="M136 350 H264" stroke="#38435d" stroke-width="20" stroke-linecap="round"/>
  <circle cx="200" cy="112" r="7" fill="#fff7c0"/>
  <circle cx="86" cy="94" r="2" fill="#fff"/>
  <circle cx="112" cy="58" r="1.5" fill="#cce4ff"/>
  <circle cx="298" cy="78" r="2" fill="#fff"/>
  <circle cx="330" cy="120" r="1.5" fill="#fff7c0"/>
  <path d="M280 154 l7 14 16 2 -11 10 3 15 -15 -7 -14 7 2 -15 -11 -10 16 -2z" fill="#fff2a0" opacity="0.9"/>
</svg>
