<svg xmlns="http://www.w3.org/2000/svg" viewBox="0 0 400 400">
  <defs>
    <linearGradient id="bg" x1="0" y1="0" x2="0" y2="1">
      <stop offset="0%" stop-color="#09142e"/>
      <stop offset="100%" stop-color="#1c2148"/>
    </linearGradient>
  </defs>
  <rect width="400" height="400" fill="url(#bg)"/>
  <circle cx="302" cy="82" r="36" fill="#f0f3ff" opacity="0.85"/>
  <path d="M0 310 L90 250 L160 280 L245 210 L400 255 L400 400 L0 400 Z" fill="#111a30"/>
  <rect x="90" y="290" width="230" height="22" rx="8" fill="#848db9"/>
  <rect x="110" y="252" width="190" height="22" rx="8" fill="#95a0cf"/>
  <rect x="135" y="214" width="145" height="22" rx="8" fill="#aab4df"/>
  <rect x="160" y="176" width="95" height="22" rx="8" fill="#c4cdf0"/>
  <ellipse cx="138" cy="301" rx="12" ry="5" fill="#dfe5ff" opacity="0.6"/>
  <ellipse cx="208" cy="263" rx="14" ry="5" fill="#dfe5ff" opacity="0.55"/>
  <ellipse cx="226" cy="225" rx="11" ry="4" fill="#dfe5ff" opacity="0.5"/>
  <circle cx="70" cy="76" r="2" fill="#fff"/>
  <circle cx="122" cy="48" r="1.5" fill="#b8c4ff"/>
  <circle cx="182" cy="70" r="1.5" fill="#fff"/>
</svg>
