<svg xmlns="http://www.w3.org/2000/svg" width="1600" height="900" viewBox="0 0 1600 900">
  <defs>
    <linearGradient id="bg" x1="0" x2="1" y1="0" y2="1">
      <stop offset="0%" stop-color="#080813" />
      <stop offset="50%" stop-color="#17113d" />
      <stop offset="100%" stop-color="#0b0b1a" />
    </linearGradient>
    <radialGradient id="halo" cx="72%" cy="28%" r="42%">
      <stop offset="0%" stop-color="#8c62ff" stop-opacity="0.28" />
      <stop offset="100%" stop-color="#8c62ff" stop-opacity="0" />
    </radialGradient>
    <linearGradient id="gold" x1="0" x2="1">
      <stop offset="0%" stop-color="#f1d378" />
      <stop offset="100%" stop-color="#c5962f" />
    </linearGradient>
  </defs>
  <rect width="1600" height="900" fill="url(#bg)" />
  <rect width="1600" height="900" fill="url(#halo)" />
  <g transform="translate(130 150)">
    <circle cx="180" cy="180" r="120" fill="none" stroke="#d4a843" stroke-opacity="0.25" stroke-width="4" />
    <path d="M122 312L180 114L238 312H210L197 264H163L150 312H122ZM169 238H191L180 177L169 238Z" fill="url(#gold)" />
    <text x="0" y="420" fill="#9f79ff" font-size="34" font-family="Georgia, serif" letter-spacing="8">TRYLLESTAVSPROJEKT</text>
    <text x="0" y="500" fill="url(#gold)" font-size="76" font-family="Georgia, serif">Magic Wand Companion</text>
    <text x="0" y="590" fill="#d9d1e7" font-size="34" font-family="Arial, sans-serif">Install the companion app to scan your wand, revisit hunt progress, and manage your magical tools from home screen launch.</text>
  </g>
  <g transform="translate(860 130)">
    <rect width="560" height="640" rx="42" fill="rgba(19,20,48,0.76)" stroke="#8e6b2b" stroke-width="3" />
    <rect x="28" y="28" width="504" height="584" rx="30" fill="none" stroke="rgba(212,168,67,0.16)" stroke-width="2" />
    <text x="280" y="160" text-anchor="middle" fill="#d7cfe1" font-size="28" font-family="Arial, sans-serif" letter-spacing="6">OWNER</text>
    <text x="280" y="290" text-anchor="middle" fill="url(#gold)" font-size="94" font-family="'Brush Script MT', cursive">Benjamin</text>
    <line x1="44" x2="516" y1="350" y2="350" stroke="rgba(228,190,92,0.4)" stroke-width="2" />
    <text x="280" y="435" text-anchor="middle" fill="#d7cfe1" font-size="28" font-family="Arial, sans-serif" letter-spacing="6">CRAFTED</text>
    <text x="280" y="520" text-anchor="middle" fill="url(#gold)" font-size="64" font-family="Georgia, serif">2026</text>
  </g>
</svg>
